<mxfile host="app.diagrams.net" modified="2023-04-24T11:38:19.043Z" agent="Mozilla/5.0 (Windows NT 10.0; Win64; x64) AppleWebKit/537.36 (KHTML, like Gecko) Chrome/111.0.0.0 Safari/537.36 OPR/97.0.0.0" etag="gYU1Xf1tiupJCp6RCZqB" version="21.1.1" type="github">
  <diagram name="Strona-1" id="wZk1T4JeS_vwJUndhbi-">
    <mxGraphModel dx="2143" dy="1178" grid="1" gridSize="10" guides="1" tooltips="1" connect="1" arrows="1" fold="1" page="1" pageScale="1" pageWidth="827" pageHeight="1169" math="0" shadow="0">
      <root>
        <mxCell id="0" />
        <mxCell id="1" parent="0" />
        <mxCell id="sA5ZujiQvvxK1ipW1q5g-134" value="Klient" style="rounded=0;whiteSpace=wrap;html=1;strokeWidth=5;fontSize=16;" parent="1" vertex="1">
          <mxGeometry x="39" y="737" width="150" height="50" as="geometry" />
        </mxCell>
        <mxCell id="sA5ZujiQvvxK1ipW1q5g-135" value="Zarządzanie zamówieniem" style="ellipse;whiteSpace=wrap;html=1;strokeWidth=2;fontSize=16;" parent="1" vertex="1">
          <mxGeometry x="320.75" y="700" width="186.5" height="124" as="geometry" />
        </mxCell>
        <mxCell id="sA5ZujiQvvxK1ipW1q5g-136" value="Dostawca" style="rounded=0;whiteSpace=wrap;html=1;strokeWidth=5;fontSize=16;" parent="1" vertex="1">
          <mxGeometry x="639" y="737" width="150" height="50" as="geometry" />
        </mxCell>
        <mxCell id="sA5ZujiQvvxK1ipW1q5g-137" value="Bank/Pośrednik Płatności" style="rounded=0;whiteSpace=wrap;html=1;strokeWidth=5;fontSize=16;" parent="1" vertex="1">
          <mxGeometry x="470" y="92.5" width="150" height="50" as="geometry" />
        </mxCell>
        <mxCell id="sA5ZujiQvvxK1ipW1q5g-138" value="Portal zawierający dane klienta" style="rounded=0;whiteSpace=wrap;html=1;strokeWidth=5;fontSize=16;" parent="1" vertex="1">
          <mxGeometry x="60" y="1100" width="150" height="50" as="geometry" />
        </mxCell>
        <mxCell id="sA5ZujiQvvxK1ipW1q5g-139" value="" style="shape=link;html=1;rounded=0;width=29.16666666666667;strokeWidth=5;fontSize=16;" parent="1" edge="1">
          <mxGeometry width="100" relative="1" as="geometry">
            <mxPoint x="81" y="274.9" as="sourcePoint" />
            <mxPoint x="201" y="274.9" as="targetPoint" />
          </mxGeometry>
        </mxCell>
        <mxCell id="sA5ZujiQvvxK1ipW1q5g-140" value="Baza Produktów" style="text;html=1;align=center;verticalAlign=middle;resizable=0;points=[];autosize=1;strokeColor=none;fillColor=none;fontSize=16;strokeWidth=5;" parent="1" vertex="1">
          <mxGeometry x="70" y="260" width="140" height="30" as="geometry" />
        </mxCell>
        <mxCell id="sA5ZujiQvvxK1ipW1q5g-141" value="" style="shape=link;html=1;rounded=0;width=29.16666666666667;strokeWidth=5;fontSize=16;" parent="1" edge="1">
          <mxGeometry width="100" relative="1" as="geometry">
            <mxPoint x="690.24" y="254.93" as="sourcePoint" />
            <mxPoint x="800" y="254.93" as="targetPoint" />
          </mxGeometry>
        </mxCell>
        <mxCell id="sA5ZujiQvvxK1ipW1q5g-142" value="Zamówienia" style="text;html=1;align=center;verticalAlign=middle;resizable=0;points=[];autosize=1;strokeColor=none;fillColor=none;fontSize=16;" parent="1" vertex="1">
          <mxGeometry x="690" y="240" width="110" height="30" as="geometry" />
        </mxCell>
        <mxCell id="sA5ZujiQvvxK1ipW1q5g-143" value="" style="shape=link;html=1;rounded=0;width=29.16666666666667;strokeWidth=5;fontSize=16;" parent="1" edge="1">
          <mxGeometry width="100" relative="1" as="geometry">
            <mxPoint x="654" y="1094.88" as="sourcePoint" />
            <mxPoint x="774" y="1094.88" as="targetPoint" />
          </mxGeometry>
        </mxCell>
        <mxCell id="sA5ZujiQvvxK1ipW1q5g-144" value="Dane klientów" style="text;html=1;align=center;verticalAlign=middle;resizable=0;points=[];autosize=1;strokeColor=none;fillColor=none;fontSize=16;" parent="1" vertex="1">
          <mxGeometry x="654" y="1080" width="120" height="30" as="geometry" />
        </mxCell>
        <mxCell id="sA5ZujiQvvxK1ipW1q5g-145" value="" style="shape=link;html=1;rounded=0;width=29.16666666666667;strokeWidth=5;fontSize=16;" parent="1" edge="1">
          <mxGeometry width="100" relative="1" as="geometry">
            <mxPoint x="351" y="502.38" as="sourcePoint" />
            <mxPoint x="471" y="502.38" as="targetPoint" />
          </mxGeometry>
        </mxCell>
        <mxCell id="sA5ZujiQvvxK1ipW1q5g-146" value="Koszyk" style="text;html=1;align=center;verticalAlign=middle;resizable=0;points=[];autosize=1;strokeColor=none;fillColor=none;fontSize=16;" parent="1" vertex="1">
          <mxGeometry x="371" y="487.5" width="80" height="30" as="geometry" />
        </mxCell>
        <mxCell id="sA5ZujiQvvxK1ipW1q5g-147" value="Wyszukiwanie produktów" style="ellipse;whiteSpace=wrap;html=1;strokeWidth=2;fontSize=16;" parent="1" vertex="1">
          <mxGeometry x="39" y="465" width="140" height="75" as="geometry" />
        </mxCell>
        <mxCell id="sA5ZujiQvvxK1ipW1q5g-148" value="Płatność" style="ellipse;whiteSpace=wrap;html=1;strokeWidth=2;fontSize=16;" parent="1" vertex="1">
          <mxGeometry x="354" y="360" width="120" height="60" as="geometry" />
        </mxCell>
        <mxCell id="sA5ZujiQvvxK1ipW1q5g-149" value="Dostawa" style="ellipse;whiteSpace=wrap;html=1;strokeWidth=2;fontSize=16;" parent="1" vertex="1">
          <mxGeometry x="644.5" y="470" width="139" height="80" as="geometry" />
        </mxCell>
        <mxCell id="sA5ZujiQvvxK1ipW1q5g-150" value="Zarządzanie kontem" style="ellipse;whiteSpace=wrap;html=1;strokeWidth=2;fontSize=16;" parent="1" vertex="1">
          <mxGeometry x="493.76" y="920" width="145.24" height="70" as="geometry" />
        </mxCell>
        <mxCell id="sA5ZujiQvvxK1ipW1q5g-151" value="" style="endArrow=classic;html=1;rounded=0;strokeWidth=2;exitX=0;exitY=0;exitDx=0;exitDy=0;entryX=0.5;entryY=1;entryDx=0;entryDy=0;" parent="1" source="sA5ZujiQvvxK1ipW1q5g-134" target="sA5ZujiQvvxK1ipW1q5g-147" edge="1">
          <mxGeometry relative="1" as="geometry">
            <mxPoint x="190" y="610" as="sourcePoint" />
            <mxPoint x="290" y="610" as="targetPoint" />
          </mxGeometry>
        </mxCell>
        <mxCell id="sA5ZujiQvvxK1ipW1q5g-152" value="&lt;span style=&quot;font-size: 16px;&quot;&gt;Parametry&lt;br&gt;Wyszukiwania&lt;br&gt;&lt;/span&gt;" style="edgeLabel;resizable=0;html=1;align=center;verticalAlign=middle;" parent="sA5ZujiQvvxK1ipW1q5g-151" connectable="0" vertex="1">
          <mxGeometry relative="1" as="geometry">
            <mxPoint x="16" y="-21" as="offset" />
          </mxGeometry>
        </mxCell>
        <mxCell id="sA5ZujiQvvxK1ipW1q5g-153" value="" style="endArrow=classic;html=1;rounded=0;strokeWidth=2;entryX=0.5;entryY=0;entryDx=0;entryDy=0;exitX=0.465;exitY=1;exitDx=0;exitDy=0;exitPerimeter=0;" parent="1" source="sA5ZujiQvvxK1ipW1q5g-140" target="sA5ZujiQvvxK1ipW1q5g-147" edge="1">
          <mxGeometry relative="1" as="geometry">
            <mxPoint x="250" y="400" as="sourcePoint" />
            <mxPoint x="79" y="305" as="targetPoint" />
          </mxGeometry>
        </mxCell>
        <mxCell id="sA5ZujiQvvxK1ipW1q5g-154" value="&lt;span style=&quot;font-size: 16px;&quot;&gt;Produkty&lt;br&gt;&lt;/span&gt;" style="edgeLabel;resizable=0;html=1;align=center;verticalAlign=middle;" parent="sA5ZujiQvvxK1ipW1q5g-153" connectable="0" vertex="1">
          <mxGeometry relative="1" as="geometry">
            <mxPoint x="8" y="-48" as="offset" />
          </mxGeometry>
        </mxCell>
        <mxCell id="sA5ZujiQvvxK1ipW1q5g-158" value="" style="endArrow=classic;html=1;rounded=0;strokeWidth=2;exitX=0.471;exitY=1.124;exitDx=0;exitDy=0;entryX=0.5;entryY=0;entryDx=0;entryDy=0;exitPerimeter=0;startArrow=classic;startFill=1;" parent="1" source="sA5ZujiQvvxK1ipW1q5g-146" target="sA5ZujiQvvxK1ipW1q5g-135" edge="1">
          <mxGeometry relative="1" as="geometry">
            <mxPoint x="470" y="802" as="sourcePoint" />
            <mxPoint x="549" y="610" as="targetPoint" />
          </mxGeometry>
        </mxCell>
        <mxCell id="sA5ZujiQvvxK1ipW1q5g-159" value="&lt;span style=&quot;font-size: 16px;&quot;&gt;Dane dt.&lt;br&gt;zamawianych&lt;br&gt;porduktów&lt;br&gt;&lt;/span&gt;" style="edgeLabel;resizable=0;html=1;align=center;verticalAlign=middle;" parent="sA5ZujiQvvxK1ipW1q5g-158" connectable="0" vertex="1">
          <mxGeometry relative="1" as="geometry">
            <mxPoint x="1" y="-1" as="offset" />
          </mxGeometry>
        </mxCell>
        <mxCell id="sA5ZujiQvvxK1ipW1q5g-162" value="" style="endArrow=classic;html=1;rounded=0;strokeWidth=2;exitX=1;exitY=0;exitDx=0;exitDy=0;entryX=0.099;entryY=1.078;entryDx=0;entryDy=0;entryPerimeter=0;startArrow=classic;startFill=1;" parent="1" source="sA5ZujiQvvxK1ipW1q5g-135" target="sA5ZujiQvvxK1ipW1q5g-142" edge="1">
          <mxGeometry relative="1" as="geometry">
            <mxPoint x="500" y="642" as="sourcePoint" />
            <mxPoint x="579" y="450" as="targetPoint" />
          </mxGeometry>
        </mxCell>
        <mxCell id="sA5ZujiQvvxK1ipW1q5g-163" value="&lt;span style=&quot;font-size: 16px;&quot;&gt;Zamówienie&lt;br&gt;&lt;/span&gt;" style="edgeLabel;resizable=0;html=1;align=center;verticalAlign=middle;" parent="sA5ZujiQvvxK1ipW1q5g-162" connectable="0" vertex="1">
          <mxGeometry relative="1" as="geometry">
            <mxPoint x="-5" y="-3" as="offset" />
          </mxGeometry>
        </mxCell>
        <mxCell id="sA5ZujiQvvxK1ipW1q5g-165" value="" style="endArrow=classic;html=1;rounded=0;strokeWidth=2;entryX=-0.022;entryY=0.522;entryDx=0;entryDy=0;exitX=1;exitY=0.5;exitDx=0;exitDy=0;entryPerimeter=0;" parent="1" source="sA5ZujiQvvxK1ipW1q5g-148" target="sA5ZujiQvvxK1ipW1q5g-142" edge="1">
          <mxGeometry relative="1" as="geometry">
            <mxPoint x="570" y="130" as="sourcePoint" />
            <mxPoint x="570" y="310" as="targetPoint" />
          </mxGeometry>
        </mxCell>
        <mxCell id="sA5ZujiQvvxK1ipW1q5g-166" value="&lt;span style=&quot;font-size: 16px;&quot;&gt;Status&lt;br&gt;płatności&lt;br&gt;&lt;/span&gt;" style="edgeLabel;resizable=0;html=1;align=center;verticalAlign=middle;" parent="sA5ZujiQvvxK1ipW1q5g-165" connectable="0" vertex="1">
          <mxGeometry relative="1" as="geometry" />
        </mxCell>
        <mxCell id="sA5ZujiQvvxK1ipW1q5g-170" value="" style="endArrow=classic;html=1;rounded=0;strokeWidth=2;exitX=0.5;exitY=0;exitDx=0;exitDy=0;entryX=0;entryY=1;entryDx=0;entryDy=0;" parent="1" source="sA5ZujiQvvxK1ipW1q5g-134" target="sA5ZujiQvvxK1ipW1q5g-148" edge="1">
          <mxGeometry relative="1" as="geometry">
            <mxPoint x="189" y="679.5" as="sourcePoint" />
            <mxPoint x="268" y="488" as="targetPoint" />
            <Array as="points">
              <mxPoint x="190" y="630" />
              <mxPoint x="240" y="440" />
            </Array>
          </mxGeometry>
        </mxCell>
        <mxCell id="sA5ZujiQvvxK1ipW1q5g-171" value="&lt;span style=&quot;font-size: 16px;&quot;&gt;Dane do&lt;br&gt;płatności&lt;br&gt;&lt;/span&gt;" style="edgeLabel;resizable=0;html=1;align=center;verticalAlign=middle;" parent="sA5ZujiQvvxK1ipW1q5g-170" connectable="0" vertex="1">
          <mxGeometry relative="1" as="geometry">
            <mxPoint x="75" y="-104" as="offset" />
          </mxGeometry>
        </mxCell>
        <mxCell id="sA5ZujiQvvxK1ipW1q5g-172" value="" style="endArrow=classic;html=1;rounded=0;strokeWidth=2;entryX=0.006;entryY=0.567;entryDx=0;entryDy=0;exitX=1;exitY=0.5;exitDx=0;exitDy=0;entryPerimeter=0;startArrow=classic;startFill=1;" parent="1" source="sA5ZujiQvvxK1ipW1q5g-147" target="sA5ZujiQvvxK1ipW1q5g-146" edge="1">
          <mxGeometry relative="1" as="geometry">
            <mxPoint x="319" y="487.5" as="sourcePoint" />
            <mxPoint x="321" y="667.5" as="targetPoint" />
          </mxGeometry>
        </mxCell>
        <mxCell id="sA5ZujiQvvxK1ipW1q5g-173" value="&lt;span style=&quot;font-size: 16px;&quot;&gt;Wyszukane&lt;br&gt;Produkty&lt;br&gt;&lt;/span&gt;" style="edgeLabel;resizable=0;html=1;align=center;verticalAlign=middle;" parent="sA5ZujiQvvxK1ipW1q5g-172" connectable="0" vertex="1">
          <mxGeometry relative="1" as="geometry">
            <mxPoint x="5" y="-1" as="offset" />
          </mxGeometry>
        </mxCell>
        <mxCell id="sA5ZujiQvvxK1ipW1q5g-174" value="" style="endArrow=classic;html=1;rounded=0;strokeWidth=2;entryX=1;entryY=1;entryDx=0;entryDy=0;exitX=0.74;exitY=0.025;exitDx=0;exitDy=0;exitPerimeter=0;" parent="1" source="sA5ZujiQvvxK1ipW1q5g-144" target="sA5ZujiQvvxK1ipW1q5g-149" edge="1">
          <mxGeometry relative="1" as="geometry">
            <mxPoint x="810" y="644" as="sourcePoint" />
            <mxPoint x="812" y="824" as="targetPoint" />
            <Array as="points">
              <mxPoint x="800" y="920" />
              <mxPoint x="800" y="620" />
            </Array>
          </mxGeometry>
        </mxCell>
        <mxCell id="sA5ZujiQvvxK1ipW1q5g-175" value="&lt;span style=&quot;font-size: 16px;&quot;&gt;Adres&amp;nbsp;&lt;br&gt;dostawy&lt;br&gt;&lt;/span&gt;" style="edgeLabel;resizable=0;html=1;align=center;verticalAlign=middle;" parent="sA5ZujiQvvxK1ipW1q5g-174" connectable="0" vertex="1">
          <mxGeometry relative="1" as="geometry">
            <mxPoint x="-30" y="199" as="offset" />
          </mxGeometry>
        </mxCell>
        <mxCell id="sA5ZujiQvvxK1ipW1q5g-176" value="" style="endArrow=classic;html=1;rounded=0;strokeWidth=2;exitX=0.5;exitY=1;exitDx=0;exitDy=0;entryX=0.5;entryY=0;entryDx=0;entryDy=0;" parent="1" source="sA5ZujiQvvxK1ipW1q5g-149" target="sA5ZujiQvvxK1ipW1q5g-136" edge="1">
          <mxGeometry relative="1" as="geometry">
            <mxPoint x="678" y="580" as="sourcePoint" />
            <mxPoint x="560" y="804" as="targetPoint" />
          </mxGeometry>
        </mxCell>
        <mxCell id="sA5ZujiQvvxK1ipW1q5g-177" value="&lt;span style=&quot;font-size: 16px;&quot;&gt;Zlecenie&lt;br&gt;dostawy&lt;br&gt;&lt;/span&gt;" style="edgeLabel;resizable=0;html=1;align=center;verticalAlign=middle;" parent="sA5ZujiQvvxK1ipW1q5g-176" connectable="0" vertex="1">
          <mxGeometry relative="1" as="geometry" />
        </mxCell>
        <mxCell id="sA5ZujiQvvxK1ipW1q5g-178" value="" style="endArrow=classic;html=1;rounded=0;strokeWidth=2;exitX=0.25;exitY=1;exitDx=0;exitDy=0;entryX=1;entryY=0.5;entryDx=0;entryDy=0;" parent="1" source="sA5ZujiQvvxK1ipW1q5g-136" target="sA5ZujiQvvxK1ipW1q5g-134" edge="1">
          <mxGeometry relative="1" as="geometry">
            <mxPoint x="540" y="810" as="sourcePoint" />
            <mxPoint x="582" y="997" as="targetPoint" />
            <Array as="points">
              <mxPoint x="560" y="850" />
              <mxPoint x="320" y="850" />
              <mxPoint x="260" y="810" />
            </Array>
          </mxGeometry>
        </mxCell>
        <mxCell id="sA5ZujiQvvxK1ipW1q5g-179" value="&lt;span style=&quot;font-size: 16px;&quot;&gt;Dane dt. dostawy&lt;br&gt;&lt;/span&gt;" style="edgeLabel;resizable=0;html=1;align=center;verticalAlign=middle;" parent="sA5ZujiQvvxK1ipW1q5g-178" connectable="0" vertex="1">
          <mxGeometry relative="1" as="geometry">
            <mxPoint x="13" as="offset" />
          </mxGeometry>
        </mxCell>
        <mxCell id="sA5ZujiQvvxK1ipW1q5g-183" value="" style="endArrow=classic;html=1;rounded=0;strokeWidth=2;entryX=1;entryY=0;entryDx=0;entryDy=0;exitX=0.75;exitY=1;exitDx=0;exitDy=0;" parent="1" source="sA5ZujiQvvxK1ipW1q5g-137" target="sA5ZujiQvvxK1ipW1q5g-148" edge="1">
          <mxGeometry relative="1" as="geometry">
            <mxPoint x="580" y="210" as="sourcePoint" />
            <mxPoint x="584" y="80" as="targetPoint" />
            <Array as="points">
              <mxPoint x="590" y="230" />
            </Array>
          </mxGeometry>
        </mxCell>
        <mxCell id="sA5ZujiQvvxK1ipW1q5g-184" value="&lt;span style=&quot;font-size: 16px;&quot;&gt;Autoryzacja&lt;br&gt;&lt;/span&gt;" style="edgeLabel;resizable=0;html=1;align=center;verticalAlign=middle;" parent="sA5ZujiQvvxK1ipW1q5g-183" connectable="0" vertex="1">
          <mxGeometry relative="1" as="geometry">
            <mxPoint x="36" y="-36" as="offset" />
          </mxGeometry>
        </mxCell>
        <mxCell id="sA5ZujiQvvxK1ipW1q5g-185" value="" style="endArrow=classic;html=1;rounded=0;strokeWidth=2;exitX=0.707;exitY=1.233;exitDx=0;exitDy=0;exitPerimeter=0;" parent="1" source="sA5ZujiQvvxK1ipW1q5g-142" target="sA5ZujiQvvxK1ipW1q5g-149" edge="1">
          <mxGeometry relative="1" as="geometry">
            <mxPoint x="665" y="538" as="sourcePoint" />
            <mxPoint x="505" y="762" as="targetPoint" />
          </mxGeometry>
        </mxCell>
        <mxCell id="sA5ZujiQvvxK1ipW1q5g-186" value="&lt;span style=&quot;font-size: 16px;&quot;&gt;Dane dt.&lt;br&gt;zamówienia&lt;br&gt;&lt;/span&gt;" style="edgeLabel;resizable=0;html=1;align=center;verticalAlign=middle;" parent="sA5ZujiQvvxK1ipW1q5g-185" connectable="0" vertex="1">
          <mxGeometry relative="1" as="geometry" />
        </mxCell>
        <mxCell id="sA5ZujiQvvxK1ipW1q5g-188" value="" style="endArrow=classic;html=1;rounded=0;strokeWidth=2;entryX=0;entryY=1;entryDx=0;entryDy=0;exitX=1;exitY=0.5;exitDx=0;exitDy=0;" parent="1" source="sA5ZujiQvvxK1ipW1q5g-135" target="sA5ZujiQvvxK1ipW1q5g-149" edge="1">
          <mxGeometry relative="1" as="geometry">
            <mxPoint x="484" y="285" as="sourcePoint" />
            <mxPoint x="628" y="286" as="targetPoint" />
          </mxGeometry>
        </mxCell>
        <mxCell id="sA5ZujiQvvxK1ipW1q5g-189" value="&lt;span style=&quot;font-size: 16px;&quot;&gt;Dane dt.&lt;br&gt;dostawy&lt;br&gt;&lt;/span&gt;" style="edgeLabel;resizable=0;html=1;align=center;verticalAlign=middle;" parent="sA5ZujiQvvxK1ipW1q5g-188" connectable="0" vertex="1">
          <mxGeometry relative="1" as="geometry" />
        </mxCell>
        <mxCell id="sA5ZujiQvvxK1ipW1q5g-191" value="" style="endArrow=classic;html=1;rounded=0;strokeWidth=2;exitX=0;exitY=0;exitDx=0;exitDy=0;startArrow=none;startFill=0;" parent="1" source="sA5ZujiQvvxK1ipW1q5g-135" edge="1">
          <mxGeometry relative="1" as="geometry">
            <mxPoint x="419" y="531" as="sourcePoint" />
            <mxPoint x="150" y="740" as="targetPoint" />
            <Array as="points">
              <mxPoint x="270" y="650" />
            </Array>
          </mxGeometry>
        </mxCell>
        <mxCell id="sA5ZujiQvvxK1ipW1q5g-192" value="&lt;span style=&quot;font-size: 16px;&quot;&gt;Status&lt;br&gt;zamówienia&lt;br&gt;&lt;/span&gt;" style="edgeLabel;resizable=0;html=1;align=center;verticalAlign=middle;" parent="sA5ZujiQvvxK1ipW1q5g-191" connectable="0" vertex="1">
          <mxGeometry relative="1" as="geometry">
            <mxPoint x="9" y="-1" as="offset" />
          </mxGeometry>
        </mxCell>
        <mxCell id="sA5ZujiQvvxK1ipW1q5g-194" value="" style="endArrow=classic;html=1;rounded=0;strokeWidth=2;exitX=0.75;exitY=1;exitDx=0;exitDy=0;entryX=0;entryY=0.5;entryDx=0;entryDy=0;" parent="1" source="sA5ZujiQvvxK1ipW1q5g-134" target="sA5ZujiQvvxK1ipW1q5g-150" edge="1">
          <mxGeometry relative="1" as="geometry">
            <mxPoint x="270" y="1107" as="sourcePoint" />
            <mxPoint x="302" y="910" as="targetPoint" />
            <Array as="points">
              <mxPoint x="380" y="940" />
            </Array>
          </mxGeometry>
        </mxCell>
        <mxCell id="sA5ZujiQvvxK1ipW1q5g-195" value="&lt;span style=&quot;font-size: 16px;&quot;&gt;Dane&amp;nbsp;&lt;br&gt;klienta&lt;br&gt;&lt;/span&gt;" style="edgeLabel;resizable=0;html=1;align=center;verticalAlign=middle;" parent="sA5ZujiQvvxK1ipW1q5g-194" connectable="0" vertex="1">
          <mxGeometry relative="1" as="geometry">
            <mxPoint x="-98" y="-65" as="offset" />
          </mxGeometry>
        </mxCell>
        <mxCell id="sA5ZujiQvvxK1ipW1q5g-196" value="" style="endArrow=classic;html=1;rounded=0;strokeWidth=2;entryX=1;entryY=1;entryDx=0;entryDy=0;exitX=-0.026;exitY=0.467;exitDx=0;exitDy=0;exitPerimeter=0;startArrow=classic;startFill=1;" parent="1" source="sA5ZujiQvvxK1ipW1q5g-144" target="sA5ZujiQvvxK1ipW1q5g-150" edge="1">
          <mxGeometry relative="1" as="geometry">
            <mxPoint x="531.24" y="935" as="sourcePoint" />
            <mxPoint x="486.24" y="1110" as="targetPoint" />
          </mxGeometry>
        </mxCell>
        <mxCell id="sA5ZujiQvvxK1ipW1q5g-197" value="&lt;span style=&quot;font-size: 16px;&quot;&gt;Dane&amp;nbsp;&lt;br&gt;Klienta&lt;br&gt;&lt;/span&gt;" style="edgeLabel;resizable=0;html=1;align=center;verticalAlign=middle;" parent="sA5ZujiQvvxK1ipW1q5g-196" connectable="0" vertex="1">
          <mxGeometry relative="1" as="geometry" />
        </mxCell>
        <mxCell id="sA5ZujiQvvxK1ipW1q5g-198" value="Logowanie&lt;br&gt;/&lt;br&gt;Rejestracja" style="ellipse;whiteSpace=wrap;html=1;strokeWidth=2;fontSize=16;" parent="1" vertex="1">
          <mxGeometry x="70" y="930" width="145.24" height="70" as="geometry" />
        </mxCell>
        <mxCell id="sA5ZujiQvvxK1ipW1q5g-200" value="" style="endArrow=classic;html=1;rounded=0;strokeWidth=2;entryX=0;entryY=0;entryDx=0;entryDy=0;exitX=0.205;exitY=1.035;exitDx=0;exitDy=0;exitPerimeter=0;" parent="1" source="sA5ZujiQvvxK1ipW1q5g-134" target="sA5ZujiQvvxK1ipW1q5g-198" edge="1">
          <mxGeometry relative="1" as="geometry">
            <mxPoint x="40" y="790" as="sourcePoint" />
            <mxPoint x="430" y="1008" as="targetPoint" />
            <Array as="points">
              <mxPoint x="50" y="880" />
            </Array>
          </mxGeometry>
        </mxCell>
        <mxCell id="sA5ZujiQvvxK1ipW1q5g-201" value="&lt;span style=&quot;font-size: 16px;&quot;&gt;E-mail&lt;br&gt;Hasło&lt;br&gt;&lt;/span&gt;" style="edgeLabel;resizable=0;html=1;align=center;verticalAlign=middle;" parent="sA5ZujiQvvxK1ipW1q5g-200" connectable="0" vertex="1">
          <mxGeometry relative="1" as="geometry">
            <mxPoint x="8" y="-30" as="offset" />
          </mxGeometry>
        </mxCell>
        <mxCell id="sA5ZujiQvvxK1ipW1q5g-202" value="" style="endArrow=classic;html=1;rounded=0;strokeWidth=2;exitX=0.5;exitY=0;exitDx=0;exitDy=0;entryX=0.5;entryY=1;entryDx=0;entryDy=0;" parent="1" source="sA5ZujiQvvxK1ipW1q5g-198" target="sA5ZujiQvvxK1ipW1q5g-134" edge="1">
          <mxGeometry relative="1" as="geometry">
            <mxPoint x="87" y="797" as="sourcePoint" />
            <mxPoint x="311" y="1050" as="targetPoint" />
            <Array as="points" />
          </mxGeometry>
        </mxCell>
        <mxCell id="sA5ZujiQvvxK1ipW1q5g-203" value="&lt;span style=&quot;font-size: 16px;&quot;&gt;Autoryzacja&lt;br&gt;&lt;/span&gt;" style="edgeLabel;resizable=0;html=1;align=center;verticalAlign=middle;" parent="sA5ZujiQvvxK1ipW1q5g-202" connectable="0" vertex="1">
          <mxGeometry relative="1" as="geometry">
            <mxPoint x="7" y="31" as="offset" />
          </mxGeometry>
        </mxCell>
        <mxCell id="sA5ZujiQvvxK1ipW1q5g-204" value="" style="endArrow=classic;html=1;rounded=0;strokeWidth=2;entryX=0.202;entryY=-0.084;entryDx=0;entryDy=0;exitX=0;exitY=0.5;exitDx=0;exitDy=0;entryPerimeter=0;" parent="1" source="sA5ZujiQvvxK1ipW1q5g-198" target="sA5ZujiQvvxK1ipW1q5g-138" edge="1">
          <mxGeometry relative="1" as="geometry">
            <mxPoint x="39" y="900" as="sourcePoint" />
            <mxPoint x="270" y="1151" as="targetPoint" />
            <Array as="points">
              <mxPoint x="70" y="980" />
              <mxPoint x="30" y="1020" />
            </Array>
          </mxGeometry>
        </mxCell>
        <mxCell id="sA5ZujiQvvxK1ipW1q5g-205" value="&lt;span style=&quot;font-size: 16px;&quot;&gt;E-mail&lt;br&gt;Hasło&lt;br&gt;&lt;/span&gt;" style="edgeLabel;resizable=0;html=1;align=center;verticalAlign=middle;" parent="sA5ZujiQvvxK1ipW1q5g-204" connectable="0" vertex="1">
          <mxGeometry relative="1" as="geometry">
            <mxPoint x="1" as="offset" />
          </mxGeometry>
        </mxCell>
        <mxCell id="sA5ZujiQvvxK1ipW1q5g-208" value="" style="endArrow=classic;html=1;rounded=0;strokeWidth=2;entryX=0.272;entryY=1.063;entryDx=0;entryDy=0;exitX=1;exitY=0.5;exitDx=0;exitDy=0;entryPerimeter=0;" parent="1" source="sA5ZujiQvvxK1ipW1q5g-198" target="sA5ZujiQvvxK1ipW1q5g-144" edge="1">
          <mxGeometry relative="1" as="geometry">
            <mxPoint x="520" y="1200" as="sourcePoint" />
            <mxPoint x="759" y="1180" as="targetPoint" />
            <Array as="points">
              <mxPoint x="380" y="1100" />
              <mxPoint x="650" y="1130" />
            </Array>
          </mxGeometry>
        </mxCell>
        <mxCell id="sA5ZujiQvvxK1ipW1q5g-209" value="&lt;span style=&quot;font-size: 16px;&quot;&gt;Dane&amp;nbsp;&lt;br&gt;klienta&lt;br&gt;&lt;/span&gt;" style="edgeLabel;resizable=0;html=1;align=center;verticalAlign=middle;" parent="sA5ZujiQvvxK1ipW1q5g-208" connectable="0" vertex="1">
          <mxGeometry relative="1" as="geometry">
            <mxPoint x="12" y="-6" as="offset" />
          </mxGeometry>
        </mxCell>
        <mxCell id="sA5ZujiQvvxK1ipW1q5g-210" value="Wystawienie&lt;br&gt;Opinii o&lt;br&gt;produkcie" style="ellipse;whiteSpace=wrap;html=1;strokeWidth=2;fontSize=16;" parent="1" vertex="1">
          <mxGeometry x="39" y="40" width="140" height="75" as="geometry" />
        </mxCell>
        <mxCell id="sA5ZujiQvvxK1ipW1q5g-211" value="" style="endArrow=classic;html=1;rounded=0;strokeWidth=2;exitX=0;exitY=0.5;exitDx=0;exitDy=0;entryX=0;entryY=1;entryDx=0;entryDy=0;" parent="1" source="sA5ZujiQvvxK1ipW1q5g-134" target="sA5ZujiQvvxK1ipW1q5g-210" edge="1">
          <mxGeometry relative="1" as="geometry">
            <mxPoint x="20" y="577" as="sourcePoint" />
            <mxPoint x="52" y="380" as="targetPoint" />
            <Array as="points">
              <mxPoint x="20" y="750" />
              <mxPoint x="20" y="530" />
              <mxPoint x="30" y="330" />
              <mxPoint x="30" y="200" />
            </Array>
          </mxGeometry>
        </mxCell>
        <mxCell id="sA5ZujiQvvxK1ipW1q5g-212" value="&lt;span style=&quot;font-size: 16px;&quot;&gt;Treść&lt;br&gt;Opini&lt;br&gt;&lt;/span&gt;" style="edgeLabel;resizable=0;html=1;align=center;verticalAlign=middle;" parent="sA5ZujiQvvxK1ipW1q5g-211" connectable="0" vertex="1">
          <mxGeometry relative="1" as="geometry">
            <mxPoint x="4" y="-29" as="offset" />
          </mxGeometry>
        </mxCell>
        <mxCell id="sA5ZujiQvvxK1ipW1q5g-215" value="" style="endArrow=classic;html=1;rounded=0;strokeWidth=2;entryX=1;entryY=0;entryDx=0;entryDy=0;exitX=0.567;exitY=-0.009;exitDx=0;exitDy=0;exitPerimeter=0;" parent="1" source="sA5ZujiQvvxK1ipW1q5g-142" target="sA5ZujiQvvxK1ipW1q5g-210" edge="1">
          <mxGeometry relative="1" as="geometry">
            <mxPoint x="680" y="180" as="sourcePoint" />
            <mxPoint x="220" y="205" as="targetPoint" />
            <Array as="points">
              <mxPoint x="720" y="80" />
              <mxPoint x="590" y="40" />
            </Array>
          </mxGeometry>
        </mxCell>
        <mxCell id="sA5ZujiQvvxK1ipW1q5g-216" value="&lt;span style=&quot;font-size: 16px;&quot;&gt;Zamówiony produkt&lt;br&gt;&lt;/span&gt;" style="edgeLabel;resizable=0;html=1;align=center;verticalAlign=middle;" parent="sA5ZujiQvvxK1ipW1q5g-215" connectable="0" vertex="1">
          <mxGeometry relative="1" as="geometry">
            <mxPoint x="54" y="-9" as="offset" />
          </mxGeometry>
        </mxCell>
        <mxCell id="sA5ZujiQvvxK1ipW1q5g-218" value="" style="endArrow=classic;html=1;rounded=0;strokeWidth=2;entryX=0.5;entryY=1;entryDx=0;entryDy=0;exitX=0.5;exitY=0;exitDx=0;exitDy=0;" parent="1" source="sA5ZujiQvvxK1ipW1q5g-148" target="sA5ZujiQvvxK1ipW1q5g-137" edge="1">
          <mxGeometry relative="1" as="geometry">
            <mxPoint x="371" y="369" as="sourcePoint" />
            <mxPoint x="376" y="124" as="targetPoint" />
            <Array as="points">
              <mxPoint x="450" y="250" />
            </Array>
          </mxGeometry>
        </mxCell>
        <mxCell id="sA5ZujiQvvxK1ipW1q5g-219" value="&lt;span style=&quot;font-size: 16px;&quot;&gt;dane dt.&lt;br&gt;płatności&lt;br&gt;&lt;/span&gt;" style="edgeLabel;resizable=0;html=1;align=center;verticalAlign=middle;" parent="sA5ZujiQvvxK1ipW1q5g-218" connectable="0" vertex="1">
          <mxGeometry relative="1" as="geometry" />
        </mxCell>
        <mxCell id="sA5ZujiQvvxK1ipW1q5g-217" value="Obliczenie&amp;nbsp;&lt;br&gt;kredytu/&lt;br&gt;leasingu" style="ellipse;whiteSpace=wrap;html=1;strokeWidth=2;fontSize=16;" parent="1" vertex="1">
          <mxGeometry x="230" y="210" width="150" height="70" as="geometry" />
        </mxCell>
        <mxCell id="sA5ZujiQvvxK1ipW1q5g-221" value="" style="endArrow=classic;html=1;rounded=0;strokeWidth=2;exitX=0.25;exitY=0;exitDx=0;exitDy=0;entryX=0;entryY=1;entryDx=0;entryDy=0;" parent="1" source="sA5ZujiQvvxK1ipW1q5g-134" target="sA5ZujiQvvxK1ipW1q5g-217" edge="1">
          <mxGeometry relative="1" as="geometry">
            <mxPoint x="80" y="737" as="sourcePoint" />
            <mxPoint x="337" y="411" as="targetPoint" />
            <Array as="points">
              <mxPoint x="156" y="630" />
              <mxPoint x="200" y="530" />
              <mxPoint x="206" y="440" />
            </Array>
          </mxGeometry>
        </mxCell>
        <mxCell id="sA5ZujiQvvxK1ipW1q5g-222" value="&lt;span style=&quot;font-size: 16px;&quot;&gt;Dane do&lt;br&gt;uzyskania&lt;br&gt;pożyczki&lt;br&gt;&lt;/span&gt;" style="edgeLabel;resizable=0;html=1;align=center;verticalAlign=middle;" parent="sA5ZujiQvvxK1ipW1q5g-221" connectable="0" vertex="1">
          <mxGeometry relative="1" as="geometry">
            <mxPoint x="29" y="-168" as="offset" />
          </mxGeometry>
        </mxCell>
        <mxCell id="sA5ZujiQvvxK1ipW1q5g-224" value="" style="endArrow=classic;html=1;rounded=0;strokeWidth=2;entryX=0.5;entryY=1;entryDx=0;entryDy=0;exitX=0;exitY=0;exitDx=0;exitDy=0;" parent="1" source="sA5ZujiQvvxK1ipW1q5g-148" target="sA5ZujiQvvxK1ipW1q5g-217" edge="1">
          <mxGeometry relative="1" as="geometry">
            <mxPoint x="381" y="379" as="sourcePoint" />
            <mxPoint x="424" y="134" as="targetPoint" />
            <Array as="points" />
          </mxGeometry>
        </mxCell>
        <mxCell id="sA5ZujiQvvxK1ipW1q5g-225" value="&lt;span style=&quot;font-size: 16px;&quot;&gt;dane dt.&lt;br&gt;płatności&lt;br&gt;&lt;/span&gt;" style="edgeLabel;resizable=0;html=1;align=center;verticalAlign=middle;" parent="sA5ZujiQvvxK1ipW1q5g-224" connectable="0" vertex="1">
          <mxGeometry relative="1" as="geometry" />
        </mxCell>
        <mxCell id="sA5ZujiQvvxK1ipW1q5g-227" value="" style="endArrow=classic;html=1;rounded=0;strokeWidth=2;entryX=0;entryY=0.5;entryDx=0;entryDy=0;exitX=0.5;exitY=0;exitDx=0;exitDy=0;" parent="1" source="sA5ZujiQvvxK1ipW1q5g-217" target="sA5ZujiQvvxK1ipW1q5g-137" edge="1">
          <mxGeometry relative="1" as="geometry">
            <mxPoint x="349" y="225" as="sourcePoint" />
            <mxPoint x="300" y="115" as="targetPoint" />
            <Array as="points">
              <mxPoint x="310" y="160" />
            </Array>
          </mxGeometry>
        </mxCell>
        <mxCell id="sA5ZujiQvvxK1ipW1q5g-228" value="&lt;span style=&quot;font-size: 16px;&quot;&gt;dane dt.&lt;br&gt;pożyczki&lt;br&gt;&lt;/span&gt;" style="edgeLabel;resizable=0;html=1;align=center;verticalAlign=middle;" parent="sA5ZujiQvvxK1ipW1q5g-227" connectable="0" vertex="1">
          <mxGeometry relative="1" as="geometry" />
        </mxCell>
        <mxCell id="urypG1pxmqPAZbs-WRG9-5" value="" style="endArrow=classic;html=1;rounded=0;strokeWidth=2;entryX=0.493;entryY=0.067;entryDx=0;entryDy=0;exitX=0.5;exitY=1;exitDx=0;exitDy=0;entryPerimeter=0;" edge="1" parent="1" source="sA5ZujiQvvxK1ipW1q5g-210" target="sA5ZujiQvvxK1ipW1q5g-140">
          <mxGeometry relative="1" as="geometry">
            <mxPoint x="267" y="199" as="sourcePoint" />
            <mxPoint x="200" y="110" as="targetPoint" />
            <Array as="points" />
          </mxGeometry>
        </mxCell>
        <mxCell id="urypG1pxmqPAZbs-WRG9-6" value="&lt;span style=&quot;font-size: 16px;&quot;&gt;opinia o&lt;br&gt;&amp;nbsp;produkcie&lt;br&gt;&lt;/span&gt;" style="edgeLabel;resizable=0;html=1;align=center;verticalAlign=middle;" connectable="0" vertex="1" parent="urypG1pxmqPAZbs-WRG9-5">
          <mxGeometry relative="1" as="geometry">
            <mxPoint x="-10" y="-38" as="offset" />
          </mxGeometry>
        </mxCell>
        <mxCell id="urypG1pxmqPAZbs-WRG9-7" value="" style="endArrow=classic;html=1;rounded=0;strokeWidth=2;entryX=0.697;entryY=0.979;entryDx=0;entryDy=0;entryPerimeter=0;exitX=1;exitY=0.5;exitDx=0;exitDy=0;" edge="1" parent="1" source="sA5ZujiQvvxK1ipW1q5g-138" target="sA5ZujiQvvxK1ipW1q5g-198">
          <mxGeometry relative="1" as="geometry">
            <mxPoint x="280" y="950" as="sourcePoint" />
            <mxPoint x="504" y="965" as="targetPoint" />
            <Array as="points">
              <mxPoint x="260" y="1080" />
            </Array>
          </mxGeometry>
        </mxCell>
        <mxCell id="urypG1pxmqPAZbs-WRG9-8" value="&lt;span style=&quot;font-size: 16px;&quot;&gt;Dane&amp;nbsp;&lt;br&gt;klienta&lt;br&gt;&lt;/span&gt;" style="edgeLabel;resizable=0;html=1;align=center;verticalAlign=middle;" connectable="0" vertex="1" parent="urypG1pxmqPAZbs-WRG9-7">
          <mxGeometry relative="1" as="geometry">
            <mxPoint x="19" y="18" as="offset" />
          </mxGeometry>
        </mxCell>
      </root>
    </mxGraphModel>
  </diagram>
</mxfile>
